<svg id="Layer_1" data-name="Layer 1" xmlns="http://www.w3.org/2000/svg" xmlns:xlink="http://www.w3.org/1999/xlink" viewBox="0 0 413.8 413.8"><defs><style>.cls-1{fill:#030721;}.cls-2{fill:url(#linear-gradient);}.cls-3{fill:#efefef;}.cls-4{fill:url(#linear-gradient-2);}</style><linearGradient id="linear-gradient" x1="-1450.85" y1="821.68" x2="-1151.64" y2="821.68" gradientUnits="userSpaceOnUse"><stop offset="0" stop-color="#581a8a"/><stop offset="1" stop-color="#371aa1"/></linearGradient><linearGradient id="linear-gradient-2" x1="-1371.18" y1="955.06" x2="-1232.6" y2="955.06" xlink:href="#linear-gradient"/></defs><rect class="cls-1" x="-1509.64" y="653.4" width="413.8" height="413.8" rx="41.04" transform="translate(-1095.84 1067.19) rotate(180)"/><path class="cls-2" d="M-1450,931l144.32-224.45a5.24,5.24,0,0,1,8.83,0l144.35,224.5a5.25,5.25,0,0,1-5.68,7.94l-143.07-35.62-143,35.56A5.25,5.25,0,0,1-1450,931Z" transform="translate(1509.64 -653.4)"/><path class="cls-3" d="M-1260,797.88a11.43,11.43,0,0,0-12.26,7.53h-57.14a11.43,11.43,0,0,0-12.26-7.53,11.46,11.46,0,0,0-9.87,10,11.43,11.43,0,0,0,11.35,12.75,11.43,11.43,0,0,0,10.78-7.62h57.14a11.43,11.43,0,0,0,10.78,7.63,11.43,11.43,0,0,0,11.35-12.75A11.45,11.45,0,0,0-1260,797.88Zm-78.8,16.23a5.1,5.1,0,0,1-6.27-6.28,5,5,0,0,1,3.51-3.51,5.1,5.1,0,0,1,6.28,6.27A5,5,0,0,1-1338.79,814.11Zm78.7,0a5.1,5.1,0,0,1-6.28-6.28,5,5,0,0,1,3.52-3.52,5.1,5.1,0,0,1,6.28,6.28A5,5,0,0,1-1260.09,814.11Z" transform="translate(1509.64 -653.4)"/><path class="cls-3" d="M-1261,864a11.43,11.43,0,0,0-10.78,7.62h-64.12V839.8l4.29,4.3a3.83,3.83,0,0,0,5.39,0h0a3.83,3.83,0,0,0,0-5.39l-10.59-10.59a3.79,3.79,0,0,0-2.8-1.11,3.79,3.79,0,0,0-2.8,1.11L-1353,838.71a3.83,3.83,0,0,0,0,5.39h0a3.83,3.83,0,0,0,5.39,0l4.09-4.09v39.26h71.74a11.43,11.43,0,0,0,10.78,7.62,11.43,11.43,0,0,0,11.43-11.43A11.43,11.43,0,0,0-1261,864Zm0,16.51a5.09,5.09,0,0,1-5.08-5.08,5.09,5.09,0,0,1,5.08-5.08,5.09,5.09,0,0,1,5.08,5.08A5.09,5.09,0,0,1-1261,880.54Z" transform="translate(1509.64 -653.4)"/><path class="cls-4" d="M-1236.33,952.47l-31.75-7.91-33.17-8.26-34.46,8.57-31.69,7.83a3.91,3.91,0,0,0-3.78,4v13a3.91,3.91,0,0,0,3.78,4h131a3.92,3.92,0,0,0,3.78-4v-13C-1232.6,954.5-1234.19,953-1236.33,952.47Z" transform="translate(1509.64 -653.4)"/></svg>