<svg id="Layer_1" data-name="Layer 1" xmlns="http://www.w3.org/2000/svg" xmlns:xlink="http://www.w3.org/1999/xlink" viewBox="0 0 1155.68 233.43"><defs><style>.cls-1{font-size:150.25px;fill:#212121;font-family:CeraBasic-Bold, Cera Basic;font-weight:700;}.cls-2{letter-spacing:-0.02em;}.cls-3{letter-spacing:-0.01em;}.cls-4{fill:url(#linear-gradient);}.cls-5{fill:#efefef;}.cls-6{fill:url(#linear-gradient-2);}</style><linearGradient id="linear-gradient" x1="-25.74" y1="525.01" x2="233.29" y2="525.01" gradientUnits="userSpaceOnUse"><stop offset="0" stop-color="#581a8a"/><stop offset="1" stop-color="#371aa1"/></linearGradient><linearGradient id="linear-gradient-2" x1="43.23" y1="640.48" x2="163.2" y2="640.48" xlink:href="#linear-gradient"/></defs><text class="cls-1" transform="translate(323.9 185.67)">El<tspan class="cls-2" x="126.51" y="0">ev</tspan><tspan x="289.98" y="0">a</tspan><tspan class="cls-3" x="371.87" y="0">t</tspan><tspan x="432.87" y="0">e LAB</tspan></text><path class="cls-4" d="M-25,619.68,99.94,425.37a4.55,4.55,0,0,1,7.65,0l125,194.36a4.54,4.54,0,0,1-4.91,6.87L103.78,595.77-20.07,626.55A4.54,4.54,0,0,1-25,619.68Z" transform="translate(25.74 -423.28)"/><path class="cls-5" d="M139.5,504.41a9.9,9.9,0,0,0-10.62,6.52H79.41a9.9,9.9,0,1,0,0,6.59h49.47a9.9,9.9,0,1,0,10.62-13.11ZM71.28,518.47A4.42,4.42,0,0,1,65.84,513a4.33,4.33,0,0,1,3-3,4.41,4.41,0,0,1,5.43,5.43A4.33,4.33,0,0,1,71.28,518.47Zm68.13,0A4.41,4.41,0,0,1,134,513a4.35,4.35,0,0,1,3.05-3,4.42,4.42,0,0,1,5.43,5.44A4.34,4.34,0,0,1,139.41,518.46Z" transform="translate(25.74 -423.28)"/><path class="cls-5" d="M138.58,561.68a9.9,9.9,0,0,0-9.33,6.6H73.73V540.71l3.72,3.72a3.31,3.31,0,0,0,4.66,0h0a3.3,3.3,0,0,0,0-4.67l-9.17-9.17a3.53,3.53,0,0,0-4.84,0l-9.17,9.17a3.32,3.32,0,0,0,0,4.67h0a3.31,3.31,0,0,0,4.66,0l3.55-3.54v34h62.11a9.89,9.89,0,1,0,9.33-13.2Zm0,14.29a4.4,4.4,0,1,1,4.39-4.39A4.4,4.4,0,0,1,138.58,576Z" transform="translate(25.74 -423.28)"/><path class="cls-6" d="M160,638.24l-27.48-6.84-28.71-7.15-29.84,7.42L46.5,638.44a3.39,3.39,0,0,0-3.27,3.49v11.3a3.39,3.39,0,0,0,3.27,3.49H159.93a3.39,3.39,0,0,0,3.27-3.49v-11.3A3.83,3.83,0,0,0,160,638.24Z" transform="translate(25.74 -423.28)"/></svg>